{
    "accessors" : [
        {
            "bufferView" : 0,
            "componentType" : 5123,
            "count" : 6144,
            "max" : [
                1088
            ],
            "min" : [
                0
            ],
            "type" : "SCALAR"
        },
        {
            "bufferView" : 1,
            "componentType" : 5126,
            "count" : 1089,
            "max" : [
                1.0,
                0.0,
                1.0
            ],
            "min" : [
                -1.0,
                0.0,
                -1.0
            ],
            "type" : "VEC3"
        },
        {
            "bufferView" : 2,
            "componentType" : 5126,
            "count" : 1089,
            "max" : [
                0.0,
                1.0,
                -0.0
            ],
            "min" : [
                0.0,
                1.0,
                -0.0
            ],
            "type" : "VEC3"
        },
        {
            "bufferView" : 3,
            "componentType" : 5126,
            "count" : 1089,
            "max" : [
                1.0,
                0.0,
                1.9073504518019035e-06,
                1.0
            ],
            "min" : [
                1.0,
                0.0,
                -1.9073486328125e-06,
                1.0
            ],
            "type" : "VEC4"
        },
        {
            "bufferView" : 4,
            "componentType" : 5126,
            "count" : 1089,
            "max" : [
                1.0,
                1.0
            ],
            "min" : [
                0.0,
                0.0
            ],
            "type" : "VEC2"
        }
    ],
    "asset" : {
        "generator" : "Khronos Blender glTF 2.0 exporter",
        "version" : "2.0"
    },
    "bufferViews" : [
        {
            "buffer" : 0,
            "byteLength" : 12288,
            "byteOffset" : 0,
            "target" : 34963
        },
        {
            "buffer" : 0,
            "byteLength" : 13068,
            "byteOffset" : 12288,
            "target" : 34962
        },
        {
            "buffer" : 0,
            "byteLength" : 13068,
            "byteOffset" : 25356,
            "target" : 34962
        },
        {
            "buffer" : 0,
            "byteLength" : 17424,
            "byteOffset" : 38424,
            "target" : 34962
        },
        {
            "buffer" : 0,
            "byteLength" : 8712,
            "byteOffset" : 55848,
            "target" : 34962
        }
    ],
    "buffers" : [
        {
            "byteLength" : 64560,
            "uri" : "test.bin"
        }
    ],
    "meshes" : [
        {
            "name" : "Plane",
            "primitives" : [
                {
                    "attributes" : {
                        "NORMAL" : 2,
                        "POSITION" : 1,
                        "TANGENT" : 3,
                        "TEXCOORD_0" : 4
                    },
                    "indices" : 0
                }
            ]
        }
    ],
    "nodes" : [
        {
            "mesh" : 0,
            "name" : "Plane",
            "scale" : [
                553.8465576171875,
                553.8465576171875,
                553.8465576171875
            ],
            "translation" : [
                0.0,
                -41.082908630371094,
                -0.0
            ]
        }
    ],
    "scene" : 0,
    "scenes" : [
        {
            "name" : "Scene",
            "nodes" : [
                0
            ]
        }
    ]
}
